<svg width="21" height="21" viewBox="0 0 21 21" fill="none" xmlns="http://www.w3.org/2000/svg">
<path d="M10.2962 6.8644C8.40511 6.8644 6.86183 8.40769 6.86183 10.2988C6.86183 12.1899 8.40511 13.7332 10.2962 13.7332C12.1873 13.7332 13.7306 12.1899 13.7306 10.2988C13.7306 8.40769 12.1873 6.8644 10.2962 6.8644ZM20.5968 10.2988C20.5968 8.8766 20.6097 7.46729 20.5298 6.04767C20.45 4.39875 20.0738 2.93533 18.868 1.72956C17.6597 0.521207 16.1988 0.147623 14.5499 0.0677538C13.1277 -0.0121159 11.7184 0.000766347 10.2988 0.000766347C8.8766 0.000766347 7.46729 -0.0121159 6.04767 0.0677538C4.39875 0.147623 2.93533 0.523784 1.72956 1.72956C0.521207 2.93791 0.147623 4.39875 0.0677538 6.04767C-0.0121159 7.46987 0.000766347 8.87918 0.000766347 10.2988C0.000766347 11.7184 -0.0121159 13.1303 0.0677538 14.5499C0.147623 16.1988 0.523784 17.6623 1.72956 18.868C2.93791 20.0764 4.39875 20.45 6.04767 20.5298C7.46987 20.6097 8.87918 20.5968 10.2988 20.5968C11.721 20.5968 13.1303 20.6097 14.5499 20.5298C16.1988 20.45 17.6623 20.0738 18.868 18.868C20.0764 17.6597 20.45 16.1988 20.5298 14.5499C20.6123 13.1303 20.5968 11.721 20.5968 10.2988ZM10.2962 15.5831C7.37196 15.5831 5.01194 13.2231 5.01194 10.2988C5.01194 7.37454 7.37196 5.01452 10.2962 5.01452C13.2205 5.01452 15.5805 7.37454 15.5805 10.2988C15.5805 13.2231 13.2205 15.5831 10.2962 15.5831ZM15.7969 6.03221C15.1142 6.03221 14.5628 5.48085 14.5628 4.7981C14.5628 4.11534 15.1142 3.56398 15.7969 3.56398C16.4797 3.56398 17.031 4.11534 17.031 4.7981C17.0312 4.96022 16.9995 5.12079 16.9375 5.27061C16.8756 5.42044 16.7847 5.55656 16.67 5.6712C16.5554 5.78584 16.4193 5.87674 16.2694 5.93869C16.1196 6.00063 15.959 6.03242 15.7969 6.03221Z" fill="url(#paint0_linear_123_909)"/>
<defs>
<linearGradient id="paint0_linear_123_909" x1="10.299" y1="0" x2="10.299" y2="20.5976" gradientUnits="userSpaceOnUse">
<stop stop-color="#7D7AD8"/>
<stop offset="1" stop-color="#7D7AD8" stop-opacity="0"/>
</linearGradient>
</defs>
</svg>
