<svg width="27" height="27" viewBox="0 0 27 27" fill="none" xmlns="http://www.w3.org/2000/svg">
<path d="M0.00531434 26.4831L1.79557 19.9047C0.615933 17.8825 -0.00382765 15.5826 1.77864e-05 13.2416C1.77864e-05 5.92824 5.92826 0 13.2416 0C20.5549 0 26.4831 5.92824 26.4831 13.2416C26.4831 20.5549 20.5549 26.4831 13.2416 26.4831C10.9015 26.4869 8.6026 25.8676 6.58107 24.6889L0.00531434 26.4831ZM8.46269 7.02862C8.2917 7.03923 8.1246 7.08427 7.97143 7.16103C7.82779 7.24237 7.69666 7.34406 7.58213 7.46294C7.42323 7.61257 7.33319 7.74234 7.23653 7.86813C6.74713 8.50504 6.48389 9.28685 6.48838 10.0901C6.49103 10.7389 6.66052 11.3705 6.92535 11.9611C7.46693 13.1555 8.35809 14.42 9.53526 15.5919C9.81863 15.874 10.0954 16.1573 10.3933 16.4208C11.8544 17.7072 13.5955 18.6349 15.4781 19.1301L16.2315 19.2453C16.4765 19.2585 16.7215 19.24 16.9677 19.2281C17.3534 19.2082 17.7299 19.1037 18.0708 18.9222C18.2442 18.8329 18.4134 18.7357 18.5779 18.6309C18.5779 18.6309 18.6349 18.5938 18.7434 18.5117C18.9222 18.3793 19.0321 18.2853 19.1804 18.1303C19.2903 18.0165 19.3856 17.8827 19.4585 17.7304C19.5618 17.5146 19.665 17.1028 19.7074 16.7598C19.7392 16.4977 19.7299 16.3546 19.726 16.2659C19.7207 16.1242 19.6028 15.9773 19.4744 15.915L18.7037 15.5694C18.7037 15.5694 17.5517 15.0676 16.8486 14.7471C16.7744 14.7148 16.695 14.6964 16.6142 14.6928C16.5236 14.6835 16.4321 14.6937 16.3457 14.7227C16.2594 14.7517 16.1803 14.7989 16.1137 14.861V14.8583C16.107 14.8583 16.0183 14.9338 15.061 16.0938C15.006 16.1676 14.9303 16.2234 14.8435 16.2541C14.7568 16.2847 14.6628 16.2889 14.5737 16.2659C14.4874 16.2429 14.4029 16.2136 14.3208 16.1785C14.1566 16.1097 14.0996 16.0832 13.9871 16.0342L13.9804 16.0315C13.2229 15.7008 12.5215 15.2541 11.9015 14.7074C11.7347 14.5617 11.5798 14.4028 11.4209 14.2492C10.8999 13.7503 10.4459 13.186 10.0702 12.5702L9.99209 12.4444C9.93598 12.3599 9.89061 12.2687 9.85703 12.173C9.80671 11.9783 9.9378 11.8221 9.9378 11.8221C9.9378 11.8221 10.2596 11.4698 10.4092 11.2792C10.5338 11.1207 10.65 10.9558 10.7575 10.7852C10.9137 10.5337 10.9627 10.2754 10.8806 10.0755C10.5098 9.16978 10.1258 8.26803 9.73123 7.3729C9.65311 7.19546 9.42138 7.06834 9.21084 7.04318C9.13934 7.03524 9.06783 7.02729 8.99633 7.022C8.8185 7.01316 8.64031 7.01493 8.46269 7.02729V7.02862Z" fill="url(#paint0_linear_123_907)"/>
<defs>
<linearGradient id="paint0_linear_123_907" x1="13.2416" y1="0" x2="13.2416" y2="26.4831" gradientUnits="userSpaceOnUse">
<stop stop-color="#7D7AD8"/>
<stop offset="1" stop-color="#7D7AD8" stop-opacity="0"/>
</linearGradient>
</defs>
</svg>
