<svg width="26" height="18" viewBox="0 0 26 18" fill="none" xmlns="http://www.w3.org/2000/svg">
<path d="M24.4898 2.73846C24.3474 2.20818 24.0683 1.7246 23.6803 1.33611C23.2923 0.947623 22.8091 0.667853 22.279 0.524802C20.3277 1.06487e-07 12.5059 0 12.5059 0C12.5059 0 4.68414 -1.06487e-07 2.73288 0.52201C2.20255 0.664597 1.71907 0.944212 1.331 1.33277C0.942932 1.72133 0.663928 2.20516 0.52201 2.73567C-1.06487e-07 4.68972 0 8.76531 0 8.76531C0 8.76531 -1.06487e-07 12.8409 0.52201 14.7922C0.809535 15.8697 1.65815 16.7183 2.73288 17.0058C4.68414 17.5306 12.5059 17.5306 12.5059 17.5306C12.5059 17.5306 20.3277 17.5306 22.279 17.0058C23.3565 16.7183 24.2023 15.8697 24.4898 14.7922C25.0118 12.8409 25.0118 8.76531 25.0118 8.76531C25.0118 8.76531 25.0118 4.68972 24.4898 2.73846ZM10.0215 12.5059V5.0247L16.4978 8.73739L10.0215 12.5059Z" fill="url(#paint0_linear_123_910)"/>
<defs>
<linearGradient id="paint0_linear_123_910" x1="12.5059" y1="0" x2="12.5059" y2="17.5306" gradientUnits="userSpaceOnUse">
<stop stop-color="#7D7AD8"/>
<stop offset="1" stop-color="#7D7AD8" stop-opacity="0"/>
</linearGradient>
</defs>
</svg>
