<svg width="42" height="42" viewBox="0 0 42 42" fill="none" xmlns="http://www.w3.org/2000/svg">
<path d="M16.5722 15.9235L16.5736 15.2102C16.574 15.0902 16.5387 14.9727 16.4722 14.8727C16.4058 14.7727 16.3111 14.6948 16.2002 14.6487C16.0893 14.6027 15.9673 14.5906 15.8495 14.614C15.7318 14.6374 15.6236 14.6953 15.5388 14.7803L10.4333 19.8859C10.377 19.9423 10.3325 20.0092 10.3022 20.0829C10.2718 20.1565 10.2563 20.2355 10.2566 20.3151C10.2568 20.3948 10.2727 20.4736 10.3034 20.5471C10.3341 20.6206 10.379 20.6873 10.4355 20.7434L15.5422 25.8501C15.6267 25.936 15.7349 25.9946 15.8529 26.0184C15.971 26.0423 16.0934 26.0303 16.2046 25.984C16.3158 25.9377 16.4106 25.8592 16.4768 25.7586C16.543 25.6581 16.5776 25.54 16.5762 25.4196C16.5767 25.2595 16.6405 25.1061 16.7537 24.9929C16.8669 24.8797 17.0203 24.8159 17.1804 24.8154L28.0598 24.8012C28.1392 24.8012 28.2179 24.7856 28.2913 24.7552C28.3647 24.7248 28.4314 24.6802 28.4875 24.624C28.5437 24.5679 28.5883 24.5012 28.6187 24.4278C28.6491 24.3544 28.6647 24.2757 28.6647 24.1963L28.6624 23.2084C28.6615 23.0881 28.6965 22.9703 28.7629 22.87C28.8293 22.7697 28.9241 22.6915 29.0352 22.6454C29.1463 22.5992 29.2686 22.5872 29.3865 22.611C29.5044 22.6347 29.6126 22.693 29.6972 22.7786L34.8017 27.8831C34.9153 27.9966 34.9792 28.1506 34.9795 28.3112C34.9798 28.4718 34.9164 28.6259 34.8032 28.7399L29.6976 33.8455C29.6126 33.93 29.5045 33.9874 29.387 34.0105C29.2694 34.0337 29.1476 34.0215 29.0369 33.9755C28.9262 33.9295 28.8317 33.8518 28.7651 33.7522C28.6985 33.6525 28.6629 33.5354 28.6628 33.4156L28.6613 32.7272C28.6631 32.6474 28.6487 32.5682 28.619 32.4941C28.5893 32.4201 28.545 32.3529 28.4886 32.2965C28.4322 32.2401 28.3649 32.1957 28.2909 32.166C28.2169 32.1363 28.1376 32.1219 28.0579 32.1237L9.74972 32.123C9.58945 32.1219 9.43607 32.0577 9.32273 31.9444C9.2094 31.831 9.14522 31.6776 9.14407 31.5174L9.14323 9.10819C9.14289 9.02847 9.15834 8.94946 9.18869 8.87574C9.21903 8.80202 9.26368 8.73504 9.32006 8.67867C9.37643 8.6223 9.44341 8.57765 9.51713 8.5473C9.59085 8.51695 9.66985 8.5015 9.74957 8.50185L40.7687 8.50959C40.929 8.50845 41.0824 8.44429 41.1957 8.33096C41.309 8.21763 41.3732 8.06425 41.3743 7.90398L41.3697 0.60562C41.369 0.445184 41.305 0.291487 41.1916 0.178035C41.0781 0.0645841 40.9244 0.000575719 40.764 -3.71801e-05L0.605435 0.000664006C0.444997 0.0012642 0.291306 0.0652612 0.177863 0.178704C0.06442 0.292147 0.000423022 0.445839 -0.000177175 0.606276L0.00132108 40.7626C0.00193339 40.9231 0.0659413 41.0768 0.179393 41.1902C0.292844 41.3037 0.446542 41.3677 0.606979 41.3683L40.7626 41.3691C40.9227 41.3686 41.0761 41.3048 41.1893 41.1916C41.3025 41.0784 41.3663 40.925 41.3668 40.7649L41.3659 17.1401C41.3653 16.9798 41.3014 16.8263 41.1881 16.7129C41.0748 16.5996 40.9212 16.5357 40.761 16.5352L17.1801 16.5343C17.1003 16.5346 17.0213 16.5192 16.9476 16.4888C16.8739 16.4584 16.8069 16.4138 16.7505 16.3574C16.6941 16.301 16.6495 16.2341 16.6191 16.1603C16.5888 16.0866 16.5733 16.0076 16.5737 15.9279L16.5722 15.9235Z" fill="white"/>
</svg>
