<svg width="50" height="51" viewBox="0 0 50 51" fill="none" xmlns="http://www.w3.org/2000/svg">
<path d="M20.8978 0L39.9617 5.78821C40.4934 5.94952 40.9581 6.27178 41.288 6.70794C41.6179 7.1441 41.7957 7.67133 41.7955 8.21265V12.6934H47.0199C47.7127 12.6934 48.3772 12.9609 48.8671 13.437C49.3569 13.9131 49.6322 14.5588 49.6322 15.2321V20.3095H15.6733V15.2321C15.6733 14.5588 15.9485 13.9131 16.4384 13.437C16.9283 12.9609 17.5927 12.6934 18.2855 12.6934H36.5711V10.0786L20.8978 5.31601L5.22444 10.0786V28.875C5.22406 30.4293 5.5908 31.9629 6.2964 33.3577C7.002 34.7525 8.02763 35.9713 9.29428 36.9201L9.78798 37.2654L20.8978 44.6301L30.7772 38.0803H18.2855C17.5927 38.0803 16.9283 37.8128 16.4384 37.3367C15.9485 36.8606 15.6733 36.2149 15.6733 35.5416V25.3869H49.6322V35.5416C49.6322 36.2149 49.3569 36.8606 48.8671 37.3367C48.3772 37.8128 47.7127 38.0803 47.0199 38.0803L38.6086 38.0828C37.5977 39.3776 36.3699 40.52 34.9515 41.4593L20.8978 50.7737L6.84401 41.4618C4.7347 40.0642 3.00863 38.1869 1.81586 35.9933C0.623088 33.7997 -0.000264416 31.3561 8.41391e-08 28.875V8.21265C0.00031505 7.67176 0.17838 7.14511 0.508239 6.70946C0.838099 6.27381 1.30251 5.95193 1.83378 5.79075L20.8978 0Z" fill="url(#paint0_linear_123_709)"/>
<defs>
<linearGradient id="paint0_linear_123_709" x1="24.8161" y1="-2.92027e-06" x2="91.3446" y2="18.4056" gradientUnits="userSpaceOnUse">
<stop stop-color="#FD5A14"/>
<stop offset="0.609375" stop-color="#FFF06B" stop-opacity="0.59"/>
<stop offset="1" stop-color="#060ED0" stop-opacity="0.28"/>
</linearGradient>
</defs>
</svg>
