<svg width="55" height="46" viewBox="0 0 55 46" fill="none" xmlns="http://www.w3.org/2000/svg">
<path d="M47.2878 45.6964H6.75541C4.89063 45.6964 3.29854 45.0589 1.97912 43.7838C0.659708 42.5088 0 40.9703 0 39.1683V13.0561C0 12.1721 0.325456 11.4071 0.976367 10.7611C1.62728 10.1151 2.42772 9.79208 3.3777 9.79208H28.7105C28.7105 9.55408 28.9128 9.07807 29.3174 8.36407C29.722 7.65006 30.1179 6.98706 30.5049 6.37505L31.1382 5.50804C31.3845 4.86204 31.8771 4.32653 32.6159 3.90153C33.3548 3.47653 34.1289 3.26403 34.9381 3.26403H47.6045C48.4489 3.26403 49.2406 3.47653 49.9795 3.90153C50.7183 4.32653 51.2109 4.86204 51.4572 5.50804C53.1812 7.68406 54.0432 9.11207 54.0432 9.79208V39.1683C54.0432 40.9703 53.3835 42.5088 52.0641 43.7838C50.7447 45.0589 49.1526 45.6964 47.2878 45.6964ZM33.777 22.8482C33.777 21.0462 33.1173 19.5077 31.7979 18.2326C30.4785 16.9576 28.8864 16.3201 27.0216 16.3201C25.1569 16.3201 23.5648 16.9576 22.2453 18.2326C20.9259 19.5077 20.2662 21.0462 20.2662 22.8482C20.2662 24.1742 20.662 25.3897 21.4537 26.4947C22.2453 27.5997 23.2745 28.3902 24.5411 28.8662L20.2662 39.1683H33.777L29.5021 28.8662C30.7688 28.3902 31.7979 27.5997 32.5896 26.4947C33.3812 25.3897 33.777 24.1742 33.777 22.8482ZM2.42772 2.24402C2.67401 1.59801 3.1666 1.06251 3.90547 0.637505C4.64434 0.212502 5.4184 0 6.22764 0H18.894C19.7385 0 20.5301 0.212502 21.269 0.637505C22.0078 1.06251 22.518 1.59801 22.7995 2.24402L25.3328 6.52805H0L2.42772 2.24402Z" fill="url(#paint0_linear_123_683)"/>
<defs>
<linearGradient id="paint0_linear_123_683" x1="27.0216" y1="-2.62824e-06" x2="97.1506" y2="23.4734" gradientUnits="userSpaceOnUse">
<stop stop-color="#05D2FF"/>
<stop offset="0.609375" stop-color="#253FE0" stop-opacity="0.619792"/>
<stop offset="1" stop-color="#060ED0" stop-opacity="0.28"/>
</linearGradient>
</defs>
</svg>
