<svg width="51" height="49" viewBox="0 0 51 49" fill="none" xmlns="http://www.w3.org/2000/svg">
<path d="M18.8076 18.2786H31.3463V16.2476C31.3463 14.6317 30.6858 13.082 29.51 11.9393C28.3343 10.7967 26.7397 10.1548 25.0769 10.1548C23.4142 10.1548 21.8196 10.7967 20.6439 11.9393C19.4681 13.082 18.8076 14.6317 18.8076 16.2476V18.2786Z" fill="url(#paint0_linear_123_690)"/>
<path d="M15.6729 26.4024H34.4808V24.3715H15.6729V26.4024Z" fill="url(#paint1_linear_123_690)"/>
<path d="M34.4808 31.4797H15.6729V29.4487H34.4808V31.4797Z" fill="url(#paint2_linear_123_690)"/>
<path d="M15.6729 36.5572H34.4808V34.5262H15.6729V36.5572Z" fill="url(#paint3_linear_123_690)"/>
<path fill-rule="evenodd" clip-rule="evenodd" d="M0 0H50.1546V48.7428H0V0ZM11.4938 18.2785C10.9395 18.2785 10.408 18.4925 10.0161 18.8734C9.62416 19.2543 9.40399 19.7709 9.40399 20.3095V40.619C9.40399 41.1576 9.62416 41.6742 10.0161 42.0551C10.408 42.436 10.9395 42.6499 11.4938 42.6499H38.6608C39.2151 42.6499 39.7466 42.436 40.1385 42.0551C40.5304 41.6742 40.7506 41.1576 40.7506 40.619V20.3095C40.7506 19.7709 40.5304 19.2543 40.1385 18.8734C39.7466 18.4925 39.2151 18.2785 38.6608 18.2785H35.5262V16.2476C35.5262 10.6391 30.8482 6.09285 25.0773 6.09285C19.3064 6.09285 14.6284 10.6391 14.6284 16.2476V18.2785H11.4938Z" fill="url(#paint4_linear_123_690)"/>
<defs>
<linearGradient id="paint0_linear_123_690" x1="25.0769" y1="10.1548" x2="40.2712" y2="16.7921" gradientUnits="userSpaceOnUse">
<stop stop-color="#00DD9C"/>
<stop offset="0.609375" stop-color="#253FE0" stop-opacity="0.619792"/>
<stop offset="1" stop-color="#060ED0" stop-opacity="0.28"/>
</linearGradient>
<linearGradient id="paint1_linear_123_690" x1="25.0768" y1="24.3715" x2="28.5257" y2="33.4107" gradientUnits="userSpaceOnUse">
<stop stop-color="#00DD9C"/>
<stop offset="0.609375" stop-color="#253FE0" stop-opacity="0.619792"/>
<stop offset="1" stop-color="#060ED0" stop-opacity="0.28"/>
</linearGradient>
<linearGradient id="paint2_linear_123_690" x1="25.0768" y1="29.4487" x2="28.5256" y2="38.488" gradientUnits="userSpaceOnUse">
<stop stop-color="#00DD9C"/>
<stop offset="0.609375" stop-color="#253FE0" stop-opacity="0.619792"/>
<stop offset="1" stop-color="#060ED0" stop-opacity="0.28"/>
</linearGradient>
<linearGradient id="paint3_linear_123_690" x1="25.0768" y1="34.5262" x2="28.5257" y2="43.5655" gradientUnits="userSpaceOnUse">
<stop stop-color="#00DD9C"/>
<stop offset="0.609375" stop-color="#253FE0" stop-opacity="0.619792"/>
<stop offset="1" stop-color="#060ED0" stop-opacity="0.28"/>
</linearGradient>
<linearGradient id="paint4_linear_123_690" x1="25.0773" y1="-2.80346e-06" x2="91.7937" y2="19.4291" gradientUnits="userSpaceOnUse">
<stop stop-color="#00DD9C"/>
<stop offset="0.609375" stop-color="#253FE0" stop-opacity="0.619792"/>
<stop offset="1" stop-color="#060ED0" stop-opacity="0.28"/>
</linearGradient>
</defs>
</svg>
