<svg width="55" height="47" viewBox="0 0 55 47" fill="none" xmlns="http://www.w3.org/2000/svg">
<path fill-rule="evenodd" clip-rule="evenodd" d="M4.66667 12C4.29848 12 4 12.2985 4 12.6667V42C4 42.3682 4.29848 42.6667 4.66667 42.6667H50C50.3682 42.6667 50.6667 42.3682 50.6667 42V12.6667C50.6667 12.2985 50.3682 12 50 12H4.66667ZM0 12.6667C0 10.0893 2.08934 8 4.66667 8H50C52.5773 8 54.6667 10.0893 54.6667 12.6667V42C54.6667 44.5773 52.5773 46.6667 50 46.6667H4.66667C2.08934 46.6667 0 44.5773 0 42V12.6667Z" fill="url(#paint0_linear_229_16)"/>
<path fill-rule="evenodd" clip-rule="evenodd" d="M26.666 19.3333C26.666 18.2287 27.5614 17.3333 28.666 17.3333H52.666C53.7706 17.3333 54.666 18.2287 54.666 19.3333V33.9999C54.666 35.1045 53.7706 35.9999 52.666 35.9999H28.666C27.5614 35.9999 26.666 35.1045 26.666 33.9999V19.3333ZM30.666 21.3333V31.9999H50.666V21.3333H30.666Z" fill="url(#paint1_linear_229_16)"/>
<path fill-rule="evenodd" clip-rule="evenodd" d="M52.666 14.6666C53.7706 14.6666 54.666 15.5621 54.666 16.6666V36.6666C54.666 37.7712 53.7706 38.6666 52.666 38.6666C51.5614 38.6666 50.666 37.7712 50.666 36.6666V16.6666C50.666 15.5621 51.5614 14.6666 52.666 14.6666Z" fill="url(#paint2_linear_229_16)"/>
<path fill-rule="evenodd" clip-rule="evenodd" d="M5.60288 2.94542C6.88899 1.23914 8.98594 0 12 0H31.3333C32.6907 0 34.8389 0.433317 36.6881 1.95614C38.6224 3.54913 40 6.14608 40 10C40 11.1046 39.1046 12 38 12C36.8954 12 36 11.1046 36 10C36 7.18725 35.0442 5.78421 34.1453 5.04386C33.1611 4.23335 31.976 4 31.3333 4H12C10.2141 4 9.31101 4.67131 8.79712 5.35308C8.21062 6.13119 8 7.11526 8 7.73133V10C8 11.1046 7.10457 12 6 12C4.89543 12 4 11.1046 4 10V7.73133C4 6.43696 4.38938 4.55537 5.60288 2.94542Z" fill="url(#paint3_linear_229_16)"/>
<path d="M40 28.6666C41.1046 28.6666 42 27.7712 42 26.6666C42 25.5621 41.1046 24.6666 40 24.6666C38.8954 24.6666 38 25.5621 38 26.6666C38 27.7712 38.8954 28.6666 40 28.6666Z" fill="url(#paint4_linear_229_16)"/>
<defs>
<linearGradient id="paint0_linear_229_16" x1="0" y1="8" x2="55.3247" y2="8.96565" gradientUnits="userSpaceOnUse">
<stop stop-color="#73E0A9"/>
<stop offset="1" stop-color="#5B68DF"/>
</linearGradient>
<linearGradient id="paint1_linear_229_16" x1="26.666" y1="17.3333" x2="55.002" y2="17.858" gradientUnits="userSpaceOnUse">
<stop stop-color="#73E0A9"/>
<stop offset="1" stop-color="#5B68DF"/>
</linearGradient>
<linearGradient id="paint2_linear_229_16" x1="50.666" y1="14.6666" x2="54.7154" y2="14.675" gradientUnits="userSpaceOnUse">
<stop stop-color="#73E0A9"/>
<stop offset="1" stop-color="#5B68DF"/>
</linearGradient>
<linearGradient id="paint3_linear_229_16" x1="4" y1="0" x2="40.3945" y2="1.34795" gradientUnits="userSpaceOnUse">
<stop stop-color="#73E0A9"/>
<stop offset="1" stop-color="#5B68DF"/>
</linearGradient>
<linearGradient id="paint4_linear_229_16" x1="38" y1="24.6666" x2="42.0488" y2="24.7166" gradientUnits="userSpaceOnUse">
<stop stop-color="#73E0A9"/>
<stop offset="1" stop-color="#5B68DF"/>
</linearGradient>
</defs>
</svg>
