<svg width="52" height="52" viewBox="0 0 52 52" fill="none" xmlns="http://www.w3.org/2000/svg">
<path fill-rule="evenodd" clip-rule="evenodd" d="M0 6C0 2.6863 2.6863 0 6 0H46C49.3138 0 52 2.68632 52 6V46C52 49.3138 49.3138 52 46 52H6C2.68632 52 0 49.3138 0 46V6ZM6 4C4.89544 4 4 4.89544 4 6V46C4 47.1046 4.89541 48 6 48H46C47.1046 48 48 47.1046 48 46V6C48 4.89541 47.1046 4 46 4H6Z" fill="url(#paint0_linear_229_24)"/>
<path fill-rule="evenodd" clip-rule="evenodd" d="M9.33301 18C9.33301 13.2136 13.2132 9.33337 17.9997 9.33337C22.7861 9.33337 26.6663 13.2136 26.6663 18C26.6663 22.7865 22.7861 26.6667 17.9997 26.6667C13.2132 26.6667 9.33301 22.7865 9.33301 18ZM17.9997 13.3334C15.4224 13.3334 13.333 15.4227 13.333 18C13.333 20.5773 15.4224 22.6667 17.9997 22.6667C20.577 22.6667 22.6663 20.5773 22.6663 18C22.6663 15.4227 20.577 13.3334 17.9997 13.3334Z" fill="url(#paint1_linear_229_24)"/>
<path fill-rule="evenodd" clip-rule="evenodd" d="M32.6554 30.1562C32.6553 30.1562 32.6553 30.1562 32.6553 30.1562L19.3238 48H44.8891C45.4279 48 45.7442 47.394 45.4361 46.952C45.4361 46.952 45.4361 46.952 45.436 46.952L33.7364 30.1739C33.4764 29.8011 32.9275 29.792 32.6554 30.1562ZM29.451 27.762C31.3556 25.2129 35.1971 25.2756 37.0174 27.8859L37.0174 27.8859L48.7171 44.6641L48.7172 44.6641C50.8743 47.7579 48.6608 52 44.8891 52H15.333C14.5761 52 13.8841 51.5728 13.545 50.8961C13.2059 50.2195 13.2778 49.4093 13.7308 48.803L29.4509 27.7621L29.451 27.762Z" fill="url(#paint2_linear_229_24)"/>
<defs>
<linearGradient id="paint0_linear_229_24" x1="0" y1="0" x2="52.634" y2="0.649802" gradientUnits="userSpaceOnUse">
<stop stop-color="#73E0A9"/>
<stop offset="1" stop-color="#5B68DF"/>
</linearGradient>
<linearGradient id="paint1_linear_229_24" x1="9.33301" y1="9.33337" x2="26.8777" y2="9.54997" gradientUnits="userSpaceOnUse">
<stop stop-color="#73E0A9"/>
<stop offset="1" stop-color="#5B68DF"/>
</linearGradient>
<linearGradient id="paint2_linear_229_24" x1="13.333" y1="25.8885" x2="50.0005" y2="26.5167" gradientUnits="userSpaceOnUse">
<stop stop-color="#73E0A9"/>
<stop offset="1" stop-color="#5B68DF"/>
</linearGradient>
</defs>
</svg>
