<svg width="55" height="55" viewBox="0 0 55 55" fill="none" xmlns="http://www.w3.org/2000/svg">
<path fill-rule="evenodd" clip-rule="evenodd" d="M0.477207 16.7034C0.857202 16.2571 1.41386 16 2.00001 16H52.6667C53.2528 16 53.8095 16.2571 54.1895 16.7034C54.5695 17.1497 54.7346 17.7403 54.6411 18.3189L49.0411 52.9856C48.8846 53.9545 48.0481 54.6667 47.0667 54.6667H7.60001C6.61856 54.6667 5.78212 53.9545 5.62561 52.9856L0.0256097 18.3189C-0.067866 17.7403 0.097213 17.1497 0.477207 16.7034ZM4.34902 20L9.30286 50.6667H45.3638L50.3177 20H4.34902Z" fill="url(#paint0_linear_229_30)"/>
<path fill-rule="evenodd" clip-rule="evenodd" d="M10.666 18C10.666 8.22627 17.9677 0 27.3327 0C36.6976 0 43.9994 8.22627 43.9994 18C43.9994 19.1046 43.1039 20 41.9994 20C40.8948 20 39.9994 19.1046 39.9994 18C39.9994 10.1007 34.168 4 27.3327 4C20.4974 4 14.666 10.1007 14.666 18C14.666 19.1046 13.7706 20 12.666 20C11.5614 20 10.666 19.1046 10.666 18Z" fill="url(#paint1_linear_229_30)"/>
<path d="M17.9997 32.6667C19.4724 32.6667 20.6663 31.4728 20.6663 30C20.6663 28.5273 19.4724 27.3334 17.9997 27.3334C16.5269 27.3334 15.333 28.5273 15.333 30C15.333 31.4728 16.5269 32.6667 17.9997 32.6667Z" fill="url(#paint2_linear_229_30)"/>
<path fill-rule="evenodd" clip-rule="evenodd" d="M20.9896 38.2124C20.3742 37.3028 19.139 37.0591 18.2238 37.6692C17.3048 38.2819 17.0564 39.5237 17.6691 40.4427L19.3332 39.3333C17.6691 40.4427 17.6696 40.4435 17.6702 40.4443L17.6713 40.4459L17.6736 40.4495L17.6792 40.4577L17.6935 40.4786L17.7346 40.5373C17.7675 40.5837 17.8118 40.6444 17.8674 40.7173C17.9784 40.863 18.1353 41.0585 18.3384 41.2871C18.7433 41.7426 19.3404 42.3387 20.1332 42.9333C21.7249 44.1271 24.1356 45.3333 27.3332 45.3333C30.5309 45.3333 32.9415 44.1271 34.5332 42.9333C35.3261 42.3387 35.9231 41.7426 36.328 41.2871C36.5312 41.0585 36.6881 40.863 36.7991 40.7173C36.8546 40.6444 36.8989 40.5837 36.9319 40.5373L36.973 40.4786L36.9872 40.4577L36.9928 40.4495L36.9952 40.4459L36.9963 40.4443C36.9968 40.4435 36.9973 40.4427 35.3332 39.3333L36.9973 40.4427C37.61 39.5237 37.3617 38.2819 36.4426 37.6692C35.5274 37.0591 34.2923 37.3028 33.6769 38.2124C33.6776 38.2114 33.6779 38.2109 33.6779 38.2109L33.6778 38.211L33.6753 38.2147L33.6727 38.2186L33.6721 38.2192C33.6743 38.216 33.6759 38.2138 33.6769 38.2124C33.6746 38.2157 33.6723 38.2191 33.6701 38.2225L33.671 38.2211L33.6721 38.2192C33.6634 38.2314 33.6451 38.2567 33.6174 38.2931C33.5617 38.3662 33.4686 38.4832 33.3384 38.6296C33.0766 38.9241 32.6737 39.328 32.1332 39.7333C31.0582 40.5396 29.4689 41.3333 27.3332 41.3333C25.1976 41.3333 23.6082 40.5396 22.5332 39.7333C21.9927 39.328 21.5898 38.9241 21.328 38.6296C21.1979 38.4832 21.1048 38.3662 21.0491 38.2931C21.0213 38.2567 21.0031 38.2314 20.9944 38.2192C20.9921 38.2161 20.9905 38.2138 20.9896 38.2124" fill="url(#paint3_linear_229_30)"/>
<path d="M36.6667 32.6667C38.1394 32.6667 39.3333 31.4728 39.3333 30C39.3333 28.5273 38.1394 27.3334 36.6667 27.3334C35.1939 27.3334 34 28.5273 34 30C34 31.4728 35.1939 32.6667 36.6667 32.6667Z" fill="url(#paint4_linear_229_30)"/>
<defs>
<linearGradient id="paint0_linear_229_30" x1="0" y1="16" x2="55.3247" y2="16.9657" gradientUnits="userSpaceOnUse">
<stop stop-color="#73E0A9"/>
<stop offset="1" stop-color="#5B68DF"/>
</linearGradient>
<linearGradient id="paint1_linear_229_30" x1="10.666" y1="0" x2="44.3966" y2="0.694045" gradientUnits="userSpaceOnUse">
<stop stop-color="#73E0A9"/>
<stop offset="1" stop-color="#5B68DF"/>
</linearGradient>
<linearGradient id="paint2_linear_229_30" x1="15.333" y1="27.3334" x2="20.7314" y2="27.4" gradientUnits="userSpaceOnUse">
<stop stop-color="#73E0A9"/>
<stop offset="1" stop-color="#5B68DF"/>
</linearGradient>
<linearGradient id="paint3_linear_229_30" x1="17.333" y1="37.3331" x2="37.5611" y2="37.9574" gradientUnits="userSpaceOnUse">
<stop stop-color="#73E0A9"/>
<stop offset="1" stop-color="#5B68DF"/>
</linearGradient>
<linearGradient id="paint4_linear_229_30" x1="34" y1="27.3334" x2="39.3984" y2="27.4" gradientUnits="userSpaceOnUse">
<stop stop-color="#73E0A9"/>
<stop offset="1" stop-color="#5B68DF"/>
</linearGradient>
</defs>
</svg>
